<mxfile host="app.diagrams.net" agent="Mozilla/5.0 (Windows NT 10.0; Win64; x64) AppleWebKit/537.36 (KHTML, like Gecko) Chrome/138.0.0.0 Safari/537.36" version="28.0.5">
  <diagram name="Page-1" id="oDOsOaPjjzMypTTilQ8L">
    <mxGraphModel dx="2063" dy="623" grid="1" gridSize="10" guides="1" tooltips="1" connect="1" arrows="1" fold="1" page="1" pageScale="1" pageWidth="850" pageHeight="1100" math="0" shadow="0">
      <root>
        <mxCell id="0" />
        <mxCell id="1" parent="0" />
        <mxCell id="AL93eXe7PfilycH_D-kl-3" style="edgeStyle=orthogonalEdgeStyle;rounded=0;orthogonalLoop=1;jettySize=auto;html=1;" edge="1" parent="1" source="AL93eXe7PfilycH_D-kl-1">
          <mxGeometry relative="1" as="geometry">
            <mxPoint x="70" y="180" as="targetPoint" />
          </mxGeometry>
        </mxCell>
        <mxCell id="AL93eXe7PfilycH_D-kl-1" value="&lt;b&gt;FROM node:20&lt;/b&gt;" style="rounded=0;whiteSpace=wrap;html=1;fillColor=#d5e8d4;gradientColor=#97d077;strokeColor=#82b366;" vertex="1" parent="1">
          <mxGeometry x="-80" y="280" width="120" height="40" as="geometry" />
        </mxCell>
        <mxCell id="AL93eXe7PfilycH_D-kl-5" style="edgeStyle=orthogonalEdgeStyle;rounded=0;orthogonalLoop=1;jettySize=auto;html=1;entryX=0.5;entryY=1;entryDx=0;entryDy=0;" edge="1" parent="1" source="AL93eXe7PfilycH_D-kl-2" target="AL93eXe7PfilycH_D-kl-4">
          <mxGeometry relative="1" as="geometry" />
        </mxCell>
        <mxCell id="AL93eXe7PfilycH_D-kl-2" value="" style="image;sketch=0;aspect=fixed;html=1;points=[];align=center;fontSize=12;image=img/lib/mscae/Docker.svg;" vertex="1" parent="1">
          <mxGeometry x="40" y="160" width="50" height="41" as="geometry" />
        </mxCell>
        <mxCell id="AL93eXe7PfilycH_D-kl-7" style="edgeStyle=orthogonalEdgeStyle;rounded=0;orthogonalLoop=1;jettySize=auto;html=1;" edge="1" parent="1" source="AL93eXe7PfilycH_D-kl-4" target="AL93eXe7PfilycH_D-kl-8">
          <mxGeometry relative="1" as="geometry">
            <mxPoint x="170" y="300" as="targetPoint" />
          </mxGeometry>
        </mxCell>
        <mxCell id="AL93eXe7PfilycH_D-kl-4" value="&lt;b&gt;WORKDIR /opt/server&lt;/b&gt;" style="rounded=0;whiteSpace=wrap;html=1;fillColor=#d5e8d4;gradientColor=#97d077;strokeColor=#82b366;" vertex="1" parent="1">
          <mxGeometry x="-7.5" y="80" width="145" height="40" as="geometry" />
        </mxCell>
        <mxCell id="AL93eXe7PfilycH_D-kl-6" value="&lt;b&gt;fdffeed09ecb&lt;/b&gt;" style="text;html=1;align=center;verticalAlign=middle;resizable=0;points=[];autosize=1;strokeColor=none;fillColor=none;" vertex="1" parent="1">
          <mxGeometry x="65" y="200" width="100" height="30" as="geometry" />
        </mxCell>
        <mxCell id="AL93eXe7PfilycH_D-kl-8" value="&lt;b&gt;82afb391deb9&lt;/b&gt;" style="rounded=0;whiteSpace=wrap;html=1;fillColor=#f8cecc;gradientColor=#ea6b66;strokeColor=#b85450;" vertex="1" parent="1">
          <mxGeometry x="120" y="280" width="120" height="40" as="geometry" />
        </mxCell>
        <mxCell id="AL93eXe7PfilycH_D-kl-13" style="edgeStyle=orthogonalEdgeStyle;rounded=0;orthogonalLoop=1;jettySize=auto;html=1;entryX=0.5;entryY=1;entryDx=0;entryDy=0;" edge="1" parent="1" source="AL93eXe7PfilycH_D-kl-9" target="AL93eXe7PfilycH_D-kl-12">
          <mxGeometry relative="1" as="geometry" />
        </mxCell>
        <mxCell id="AL93eXe7PfilycH_D-kl-9" value="" style="image;sketch=0;aspect=fixed;html=1;points=[];align=center;fontSize=12;image=img/lib/mscae/Docker.svg;" vertex="1" parent="1">
          <mxGeometry x="260" y="159" width="50" height="41" as="geometry" />
        </mxCell>
        <mxCell id="AL93eXe7PfilycH_D-kl-10" style="edgeStyle=orthogonalEdgeStyle;rounded=0;orthogonalLoop=1;jettySize=auto;html=1;entryX=0.647;entryY=1.033;entryDx=0;entryDy=0;entryPerimeter=0;" edge="1" parent="1" source="AL93eXe7PfilycH_D-kl-8" target="AL93eXe7PfilycH_D-kl-9">
          <mxGeometry relative="1" as="geometry" />
        </mxCell>
        <mxCell id="AL93eXe7PfilycH_D-kl-11" value="&lt;b&gt;d16b156b46fc&lt;/b&gt;" style="text;html=1;align=center;verticalAlign=middle;resizable=0;points=[];autosize=1;strokeColor=none;fillColor=none;" vertex="1" parent="1">
          <mxGeometry x="280" y="208" width="100" height="30" as="geometry" />
        </mxCell>
        <mxCell id="AL93eXe7PfilycH_D-kl-14" style="edgeStyle=orthogonalEdgeStyle;rounded=0;orthogonalLoop=1;jettySize=auto;html=1;" edge="1" parent="1" source="AL93eXe7PfilycH_D-kl-12">
          <mxGeometry relative="1" as="geometry">
            <mxPoint x="420" y="280" as="targetPoint" />
          </mxGeometry>
        </mxCell>
        <mxCell id="AL93eXe7PfilycH_D-kl-12" value="&lt;b&gt;WORKDIR /opt/server&lt;/b&gt;" style="rounded=0;whiteSpace=wrap;html=1;fillColor=#d5e8d4;gradientColor=#97d077;strokeColor=#82b366;" vertex="1" parent="1">
          <mxGeometry x="220" y="80" width="145" height="40" as="geometry" />
        </mxCell>
        <mxCell id="AL93eXe7PfilycH_D-kl-15" value="&lt;b&gt;82afb391deb9&lt;/b&gt;" style="rounded=0;whiteSpace=wrap;html=1;fillColor=#f8cecc;gradientColor=#ea6b66;strokeColor=#b85450;" vertex="1" parent="1">
          <mxGeometry x="360" y="290" width="120" height="40" as="geometry" />
        </mxCell>
        <mxCell id="AL93eXe7PfilycH_D-kl-20" style="edgeStyle=orthogonalEdgeStyle;rounded=0;orthogonalLoop=1;jettySize=auto;html=1;" edge="1" parent="1" source="AL93eXe7PfilycH_D-kl-16" target="AL93eXe7PfilycH_D-kl-19">
          <mxGeometry relative="1" as="geometry" />
        </mxCell>
        <mxCell id="AL93eXe7PfilycH_D-kl-16" value="" style="image;sketch=0;aspect=fixed;html=1;points=[];align=center;fontSize=12;image=img/lib/mscae/Docker.svg;" vertex="1" parent="1">
          <mxGeometry x="490" y="160" width="50" height="41" as="geometry" />
        </mxCell>
        <mxCell id="AL93eXe7PfilycH_D-kl-17" style="edgeStyle=orthogonalEdgeStyle;rounded=0;orthogonalLoop=1;jettySize=auto;html=1;entryX=0.527;entryY=1.008;entryDx=0;entryDy=0;entryPerimeter=0;" edge="1" parent="1" source="AL93eXe7PfilycH_D-kl-15" target="AL93eXe7PfilycH_D-kl-16">
          <mxGeometry relative="1" as="geometry" />
        </mxCell>
        <mxCell id="AL93eXe7PfilycH_D-kl-18" value="&lt;div style=&quot;text-align: start;&quot;&gt;&lt;font face=&quot;monospace&quot; color=&quot;rgba(0, 0, 0, 0)&quot;&gt;&lt;span style=&quot;font-size: 0px; text-wrap-mode: nowrap;&quot;&gt;ENV MONGO=&quot;true&quot; \&lt;/span&gt;&lt;/font&gt;&lt;/div&gt;&lt;div style=&quot;text-align: start;&quot;&gt;&lt;font face=&quot;monospace&quot; color=&quot;rgba(0, 0, 0, 0)&quot;&gt;&lt;span style=&quot;font-size: 0px; text-wrap-mode: nowrap;&quot;&gt;&amp;nbsp; &amp;nbsp; REDIS_URL=&quot;redis://redis:6379&quot; \&lt;/span&gt;&lt;/font&gt;&lt;/div&gt;&lt;div style=&quot;text-align: start;&quot;&gt;&lt;font face=&quot;monospace&quot; color=&quot;rgba(0, 0, 0, 0)&quot;&gt;&lt;span style=&quot;font-size: 0px; text-wrap-mode: nowrap;&quot;&gt;&amp;nbsp; &amp;nbsp; MONGO_URL=&quot;mongodb://mongodb:27017/users&quot;&lt;/span&gt;&lt;/font&gt;&lt;/div&gt;" style="rounded=0;whiteSpace=wrap;html=1;fillColor=#d5e8d4;gradientColor=#97d077;strokeColor=#82b366;" vertex="1" parent="1">
          <mxGeometry x="442.5" y="80" width="145" height="40" as="geometry" />
        </mxCell>
        <mxCell id="AL93eXe7PfilycH_D-kl-19" value="&lt;div&gt;&lt;b&gt;ENV MONGO=&quot;true&quot; \&lt;/b&gt;&lt;/div&gt;&lt;div&gt;&lt;b&gt;&amp;nbsp; &amp;nbsp; REDIS_URL=&quot;redis://redis:6379&quot; \&lt;/b&gt;&lt;/div&gt;&lt;div&gt;&lt;b&gt;&amp;nbsp; &amp;nbsp; MONGO_URL=&quot;mongodb://mongodb:27017/users&quot;&lt;/b&gt;&lt;/div&gt;" style="text;html=1;align=center;verticalAlign=middle;resizable=0;points=[];autosize=1;strokeColor=none;fillColor=none;" vertex="1" parent="1">
          <mxGeometry x="350" y="70" width="330" height="60" as="geometry" />
        </mxCell>
      </root>
    </mxGraphModel>
  </diagram>
</mxfile>
